<svg width="21" height="21" viewBox="0 0 21 21" fill="none" xmlns="http://www.w3.org/2000/svg">
<g id="Iconly/Light/Delete">
<g id="Delete">
<path id="Stroke 1" d="M15.6258 8.50439C15.6258 8.50439 15.2336 14.3975 15.006 16.8799C14.8977 18.0655 14.2931 18.7603 13.3027 18.7821C11.418 18.8233 9.53117 18.8259 7.64722 18.7778C6.69441 18.7541 6.0999 18.0506 5.99371 16.886C5.76472 14.3818 5.37463 8.50439 5.37463 8.50439" stroke="#EC1F27" stroke-width="1.5" stroke-linecap="round" stroke-linejoin="round"/>
<path id="Vector" d="M10.3344 16.1879C10.5339 16.1879 10.6956 15.992 10.6956 15.7504V10.063C10.6956 9.82138 10.5339 9.62549 10.3344 9.62549C10.135 9.62549 9.97327 9.82138 9.97327 10.063V15.7504C9.97327 15.992 10.135 16.1879 10.3344 16.1879Z" fill="#EC1F27"/>
<path id="Vector_2" d="M12.1405 16.1879C12.3399 16.1879 12.5017 15.992 12.5017 15.7504V10.063C12.5017 9.82138 12.3399 9.62549 12.1405 9.62549C11.941 9.62549 11.7793 9.82138 11.7793 10.063V15.7504C11.7793 15.992 11.941 16.1879 12.1405 16.1879Z" fill="#EC1F27"/>
<path id="Vector_3" d="M8.52878 16.1879C8.72825 16.1879 8.88997 15.992 8.88997 15.7504V10.063C8.88997 9.82138 8.72825 9.62549 8.52878 9.62549C8.32932 9.62549 8.1676 9.82138 8.1676 10.063V15.7504C8.1676 15.992 8.3293 16.1879 8.52878 16.1879Z" fill="#EC1F27"/>
<path id="Stroke 3" d="M16.625 5.67871H4.375" stroke="#EC1F27" stroke-width="1.5" stroke-linecap="round" stroke-linejoin="round"/>
<path id="Stroke 5" d="M14.2646 5.67836C13.6976 5.67836 13.2093 5.19274 13.098 4.51986L12.9225 3.45586C12.8141 2.96499 12.4472 2.62549 12.0289 2.62549H8.9711C8.55284 2.62549 8.18588 2.96499 8.07752 3.45586L7.90198 4.51986C7.79074 5.19274 7.30241 5.67836 6.73535 5.67836" stroke="#EC1F27" stroke-width="1.5" stroke-linecap="round" stroke-linejoin="round"/>
</g>
</g>
</svg>
