<svg width="25" height="25" viewBox="0 0 25 25" fill="none" xmlns="http://www.w3.org/2000/svg">
<g clip-path="url(#clip0_4849_7274)">
<path d="M12.8737 21.6753L11.1123 21.6763C4.56656 21.4405 -0.267268 15.4674 0.933777 8.99555C1.71438 4.78922 5.05991 1.37127 9.25069 0.50901C10.8041 0.189185 12.8655 0.220293 14.4651 0.282022C19.2873 0.468182 23.4474 3.93765 24.4934 8.63587C25.6055 13.6291 23.0177 18.6443 18.4226 20.7528L14.7553 24.4915C14.2687 24.9017 13.5173 24.8264 13.1173 24.334C13.0439 24.2436 12.8737 23.9301 12.8737 23.8246V21.6758V21.6753ZM14.8165 21.651L17.136 19.2965C18.1902 18.6574 19.2051 18.1635 20.1102 17.293C25.657 11.9586 22.0874 2.55628 14.4408 2.22479C13.3899 2.1791 12.114 2.1791 11.0632 2.22479C7.38569 2.38422 4.14223 4.91025 3.07485 8.41763C1.39942 13.9247 5.39918 19.4919 11.1113 19.734C11.8278 19.7646 13.3263 19.6018 13.9163 19.8429C14.6571 20.1452 14.8734 20.9103 14.8155 21.6515L14.8165 21.651Z" fill="#32CC11"/>
<path d="M12.5535 5.02343C13.6875 4.89512 14.3407 5.84098 14.3811 6.87337C14.4414 8.41368 13.7949 11.0457 13.3239 12.5442C13.2369 12.8208 13.1246 13.2344 12.7659 13.2499C12.4072 13.2655 12.2799 12.8912 12.1885 12.6113C11.6937 11.0977 11.1527 8.72232 11.1255 7.14215C11.1094 6.21087 11.4978 5.143 12.554 5.02343H12.5535Z" fill="#32CC11"/>
<path d="M12.6529 14.1561C14.4498 14.0366 14.5286 16.7828 12.8881 16.9165C11.0528 17.0657 10.942 14.2699 12.6529 14.1561Z" fill="#32CC11"/>
</g>
<defs>
<clipPath id="clip0_4849_7274">
<rect width="24" height="24.5147" fill="white" transform="translate(0.75 0.242188)"/>
</clipPath>
</defs>
</svg>
